<?xml version="1.0" encoding="utf-8"?>
<!-- Generator: Adobe Illustrator 26.2.1, SVG Export Plug-In . SVG Version: 6.00 Build 0)  -->
<svg version="1.1" id="Layer_1" xmlns="http://www.w3.org/2000/svg" xmlns:xlink="http://www.w3.org/1999/xlink" x="0px" y="0px"
	 viewBox="0 0 48 48" style="enable-background:new 0 0 48 48;" xml:space="preserve">
<style type="text/css">
	.st0{fill-rule:evenodd;clip-rule:evenodd;fill:#FAFAFA;}
	.st1{fill:#FAFAFA;}
</style>
<path class="st0" d="M48,24c0,13.3-10.7,24-24,24C10.7,48,0,37.3,0,24S10.7,0,24,0C37.3,0,48,10.7,48,24z M46,24
	c0,12.2-9.9,22-22,22S2,36.2,2,24S11.8,2,24,2S46,11.8,46,24z"/>
<path class="st1" d="M32.6,21.2c-2.4,2.1-6.4,2.3-8.5-1c-1.1-2-0.3-4.8,2-6.8c2.4-2,6.2-0.9,7.5,1.4C35,17.1,34.7,19.4,32.6,21.2z"
	/>
<path class="st1" d="M20.6,24.8C20.7,24.8,20.7,24.8,20.6,24.8c1,0.7,2.2,1,3.3,1.2c1.5,0.3,3,0.7,4.4,2c2.7,2.7,0.6,7.4-2.7,9.3
	c-3.2,1.9-7.4,0.8-9.3-2.4c-1.5-2.6-0.4-5.5,0.4-7.5c0.2-0.5,0.3-0.9,0.4-1.2c0,0,0,0,0,0c0-0.1,0.1-0.7,0-1.2
	c-0.2-0.8-1-1.3-1.9-1.8c-1-0.5-2-1.1-2.4-2.1c-0.8-2.2,0.7-4.8,2.9-5.1c3-0.4,4.7,2.2,4.1,4.1C19.4,21.5,19,23.3,20.6,24.8z"/>
</svg>
